<?xml version="1.0" standalone="no"?>
<!DOCTYPE svg PUBLIC "-//W3C//DTD SVG 20010904//EN"
 "http://www.w3.org/TR/2001/REC-SVG-20010904/DTD/svg10.dtd">
<svg version="1.0" xmlns="http://www.w3.org/2000/svg"
 width="999.000000pt" height="999.000000pt" viewBox="0 0 999.000000 999.000000"
 preserveAspectRatio="xMidYMid meet">

<g transform="translate(0.000000,999.000000) scale(0.100000,-0.100000)"
fill="#000000" stroke="none">
<path d="M4735 9750 c-16 -4 -62 -8 -101 -9 -53 -1 -78 -6 -95 -19 -13 -11
-53 -34 -89 -52 -179 -89 -174 -85 -144 -115 10 -10 25 -14 38 -11 12 3 30 8
41 11 24 7 88 -33 93 -58 8 -41 -145 -46 -156 -5 -2 10 -16 21 -31 24 -14 3
-36 7 -49 10 -14 3 -20 9 -16 16 14 23 -59 -28 -78 -54 -31 -44 -81 -32 -101
25 -8 22 -51 22 -103 1 -85 -35 -110 -48 -136 -72 -29 -27 -28 -42 3 -42 11 0
22 -7 25 -15 4 -8 14 -15 24 -15 25 0 33 -15 25 -49 -5 -22 -16 -33 -45 -45
-21 -8 -41 -24 -45 -35 -8 -25 -143 -126 -218 -161 -32 -16 -82 -31 -110 -35
-79 -10 -87 -14 -87 -41 0 -55 -88 -150 -135 -146 -15 1 -36 -16 -71 -58 -27
-33 -52 -60 -57 -60 -4 0 -26 -17 -50 -38 -23 -21 -55 -46 -72 -57 -16 -10
-59 -46 -95 -79 -36 -34 -87 -79 -113 -101 -57 -48 -91 -98 -84 -126 3 -10 0
-25 -6 -32 -25 -26 -42 -77 -38 -112 2 -13 38 41 57 85 17 39 64 84 111 106
19 8 41 30 52 52 35 68 165 172 144 115 -8 -22 -85 -124 -107 -142 -9 -8 -25
-33 -35 -57 -11 -24 -33 -60 -50 -81 -30 -39 -151 -266 -151 -287 -1 -13 -35
-56 -45 -56 -3 0 -4 4 -1 9 9 14 -4 41 -20 41 -8 0 -14 -9 -14 -21 0 -13 4
-18 13 -14 6 4 3 -1 -7 -9 -11 -9 -16 -16 -11 -16 5 0 4 -5 -3 -12 -7 -7 -12
-27 -12 -45 0 -19 -7 -48 -16 -65 -20 -38 -53 -137 -54 -158 0 -20 -35 -85
-70 -129 -15 -20 -33 -52 -39 -71 -21 -63 -24 -222 -10 -531 7 -167 13 -448
11 -624 -2 -418 9 -490 99 -609 21 -27 46 -72 57 -100 11 -28 33 -73 50 -101
52 -85 102 -179 102 -192 0 -7 7 -13 15 -13 21 0 42 -38 49 -89 4 -24 14 -57
24 -75 13 -25 16 -54 14 -141 -1 -77 2 -111 11 -117 9 -6 8 -11 -5 -19 -31
-18 -23 -74 14 -106 60 -53 118 -134 184 -258 36 -67 105 -147 167 -192 52
-39 203 -119 250 -133 48 -15 33 25 -38 96 -36 36 -65 69 -65 72 -1 4 -21 27
-45 52 -24 24 -41 48 -39 52 3 4 29 5 58 2 64 -8 122 18 178 79 40 44 62 45
78 2 5 -14 21 -51 35 -80 14 -30 37 -81 51 -112 36 -80 50 -107 136 -273 79
-151 96 -195 121 -320 41 -199 49 -361 20 -384 -10 -8 -52 -41 -93 -74 -103
-82 -191 -176 -231 -247 -23 -41 -80 -105 -179 -202 -80 -78 -194 -191 -255
-251 -60 -60 -122 -117 -137 -127 -26 -16 -103 -157 -123 -225 -15 -49 -55
-118 -80 -138 -14 -11 -76 -41 -138 -67 -218 -90 -262 -110 -301 -133 -21 -13
-59 -32 -83 -43 -25 -11 -71 -35 -102 -54 -31 -19 -81 -43 -111 -54 -30 -10
-104 -42 -164 -71 -147 -70 -236 -108 -326 -137 -41 -14 -95 -32 -120 -40 -25
-8 -76 -23 -115 -34 -38 -11 -90 -30 -115 -43 -76 -39 -87 -40 -120 -13 -16
14 -67 40 -112 57 -46 17 -121 53 -168 80 -47 26 -139 76 -205 109 -219 112
-315 166 -346 193 -17 16 -35 28 -39 28 -5 0 -10 4 -12 8 -3 8 -27 26 -144
107 -23 17 -56 40 -73 53 l-31 23 0 -1015 0 -1016 4995 0 4995 0 0 1810 c0
996 -4 1810 -8 1810 -4 0 -12 -4 -17 -9 -6 -5 -47 -25 -91 -44 -45 -19 -112
-55 -150 -79 -38 -24 -114 -65 -169 -91 -55 -26 -111 -55 -125 -63 -14 -8 -62
-33 -107 -55 -79 -37 -246 -133 -363 -207 -60 -39 -231 -208 -290 -287 -21
-27 -50 -61 -64 -75 -43 -40 -63 -79 -90 -180 -41 -150 -79 -250 -99 -256 -21
-7 -92 16 -161 51 -27 14 -55 25 -63 25 -21 0 -166 76 -185 96 -24 27 -64 113
-72 153 -7 38 -85 240 -118 305 -51 101 -292 355 -412 434 -83 54 -171 87
-311 117 -44 9 -111 24 -150 33 l-70 17 -7 85 c-10 115 -12 593 -3 655 18 131
87 283 143 319 53 34 68 54 82 114 15 66 7 112 -26 143 -30 28 -54 77 -47 96
7 19 44 15 73 -7 19 -15 41 -20 96 -20 86 0 120 11 202 64 92 60 132 126 185
312 93 321 105 501 56 844 -20 134 -58 220 -115 256 -29 19 -44 35 -44 49 0
27 29 126 41 141 5 6 7 19 3 28 -4 11 -1 16 11 16 12 0 16 7 13 27 -2 21 -12
32 -40 45 -41 20 -43 25 -53 158 -3 41 -9 106 -13 143 -5 45 -3 81 4 108 13
43 12 87 -5 204 -36 256 -35 235 -11 295 48 119 51 130 39 151 -9 17 -7 23 10
36 28 19 26 37 -4 51 -20 9 -26 8 -34 -6 -8 -13 -14 -15 -27 -7 -19 12 -69
131 -80 191 -4 21 -15 53 -24 69 -95 171 -112 210 -139 318 -17 63 -34 124
-40 134 -6 10 -19 38 -29 63 -25 59 -125 191 -198 261 -58 54 -233 165 -326
207 -49 21 -129 73 -157 101 -9 9 -43 37 -76 63 -34 25 -67 53 -74 62 -7 8
-52 36 -100 62 -47 26 -104 66 -126 90 -46 49 -99 86 -90 62 4 -10 0 -14 -14
-13 -21 1 -55 25 -47 33 7 7 -21 32 -36 32 -19 0 -78 38 -108 70 -15 16 -40
32 -56 35 -16 3 -67 15 -114 27 -176 43 -166 43 -310 -6 -41 -14 -79 -26 -84
-26 -5 0 -24 -11 -42 -25 -18 -14 -37 -25 -42 -25 -6 0 -29 -16 -52 -35 -36
-30 -47 -34 -79 -29 -29 5 -40 2 -55 -15 -28 -31 -50 -12 -91 74 -20 41 -41
75 -46 75 -6 0 -9 10 -7 23 2 17 9 22 33 21 17 -1 40 -5 52 -9 19 -6 21 -4 16
14 -11 44 -57 59 -128 41z m719 -203 c-3 -12 -12 -28 -20 -36 -12 -13 -17 -12
-39 9 -31 29 -29 52 5 60 37 10 62 -6 54 -33z m171 -4 c40 -19 41 -32 2 -51
-36 -18 -77 -6 -77 22 0 22 17 46 32 46 4 0 23 -8 43 -17z m-1611 -109 c9 -8
16 -19 16 -23 0 -17 -39 -42 -72 -46 -33 -4 -35 -3 -36 25 -1 49 58 78 92 44z
m458 -3136 c-7 -7 -12 -8 -12 -2 0 14 12 26 19 19 2 -3 -1 -11 -7 -17z m891
-485 c-7 -3 -13 -13 -13 -24 0 -10 -4 -19 -9 -19 -5 0 -7 -9 -4 -20 3 -12 0
-20 -6 -20 -7 0 -9 6 -6 13 4 6 0 4 -8 -6 -14 -16 -15 -16 -19 8 -3 14 -1 25
4 25 6 0 8 7 4 15 -3 8 -1 16 4 16 6 1 14 2 20 3 5 0 15 7 21 13 7 7 15 10 18
6 3 -3 0 -8 -6 -10z m-69 -115 c-3 -4 0 -8 5 -8 21 0 11 -30 -13 -41 -19 -9
-27 -8 -44 7 -18 15 -19 19 -5 32 12 12 12 17 1 24 -9 7 -6 8 9 5 13 -3 26 -1
29 5 4 6 10 5 15 -3 4 -7 5 -17 3 -21z m73 2 c4 -12 3 -13 -5 -1 -6 8 -17 11
-27 8 -10 -4 -14 -3 -10 4 9 14 37 7 42 -11z m-211 -55 c-24 -18 -46 -19 -46
-2 0 7 14 13 33 14 30 2 31 1 13 -12z m-528 -3653 c2 -7 -6 -12 -17 -12 -21 0
-27 11 -14 24 9 9 26 2 31 -12z m1960 -4 c17 -17 -3 -47 -27 -41 -17 4 -18 8
-9 29 13 27 19 29 36 12z m34 -466 c-3 -18 -7 -20 -13 -10 -10 15 -12 7 -3
-16 7 -17 34 -22 34 -6 0 17 18 11 44 -14 35 -31 33 -44 -9 -61 -19 -8 -39
-25 -46 -37 -6 -13 -24 -33 -40 -46 -16 -13 -29 -29 -29 -35 0 -7 4 -6 10 3 5
8 10 10 10 4 0 -18 -13 -24 -27 -12 -10 8 -17 7 -29 -8 -13 -16 -15 -16 -10
-2 3 11 1 15 -8 12 -8 -3 -17 0 -21 5 -3 6 -12 8 -18 5 -7 -4 -9 -4 -5 1 10
10 -19 38 -32 30 -5 -3 -10 -1 -10 5 0 6 -4 9 -9 6 -15 -10 -42 73 -36 107 8
42 55 67 105 56 23 -5 37 -4 42 4 5 8 8 7 8 -3 0 -13 2 -13 9 0 6 8 7 18 5 22
-3 5 8 11 25 14 17 4 31 11 31 16 0 5 6 3 13 -4 8 -6 11 -23 9 -36z m173 -43
c3 -3 -5 -14 -17 -25 -12 -10 -18 -14 -15 -7 4 6 3 14 -3 18 -6 4 -8 10 -5 15
5 9 31 8 40 -1z m-1241 -11 c-7 -11 10 -9 48 7 21 8 36 -21 20 -37 -13 -13
-86 18 -77 33 4 5 8 9 11 9 3 0 2 -5 -2 -12z m1182 -15 c-10 -10 -19 5 -10 18
6 11 8 11 12 0 2 -7 1 -15 -2 -18z m-1788 -29 c0 -15 6 -30 13 -35 7 -4 10
-11 7 -15 -4 -4 4 -15 17 -26 14 -11 25 -26 25 -34 0 -8 5 -14 10 -14 6 0 10
-7 10 -15 0 -8 6 -12 13 -10 7 3 19 -4 27 -16 8 -12 27 -37 43 -57 15 -19 27
-38 27 -43 0 -5 10 -17 22 -29 12 -11 19 -22 16 -26 -9 -8 -298 284 -298 302
0 3 4 3 9 0 5 -3 12 1 15 10 3 8 10 12 16 9 5 -3 10 1 10 9 0 9 4 16 9 16 5 0
9 -12 9 -26z m432 -195 c0 -11 -4 -17 -10 -14 -6 3 -7 -1 -4 -9 3 -9 1 -16 -5
-16 -6 0 -11 7 -11 15 0 8 -5 14 -11 13 -6 -2 -14 3 -17 11 -3 8 0 11 7 7 6
-4 19 -2 28 3 24 14 23 14 23 -10z m845 -29 c3 -5 -3 -10 -15 -10 -12 0 -18 5
-15 10 3 6 10 10 15 10 5 0 12 -4 15 -10z m245 -4 c0 -2 -6 -9 -14 -15 -11 -9
-16 -9 -22 0 -4 7 -3 9 4 5 6 -3 13 -2 17 4 6 10 15 14 15 6z m-435 -16 c3 -6
-1 -7 -9 -4 -18 7 -21 14 -7 14 6 0 13 -4 16 -10z m399 -43 c7 -6 6 -7 -4 -4
-8 2 -16 14 -17 28 -1 19 -1 20 4 4 3 -11 10 -24 17 -28z m-291 4 c3 -14 0
-17 -15 -13 -11 3 -24 -1 -29 -9 -7 -11 -9 -11 -9 -1 0 7 -5 10 -12 6 -7 -4
-8 -3 -4 5 4 6 12 8 18 5 8 -5 9 -1 4 12 -6 15 -5 17 5 7 18 -18 32 -16 25 3
-3 8 -2 13 3 10 5 -3 11 -14 14 -25z m-761 -51 c-7 -12 -7 -21 0 -28 6 -6 7
-16 2 -23 -5 -9 -10 -4 -16 16 -4 18 -3 32 3 36 6 4 8 17 5 30 -6 22 -6 22 5
5 8 -14 9 -24 1 -36z m31 15 c-3 -9 -8 -14 -10 -11 -3 3 -2 9 2 15 9 16 15 13
8 -4z m554 -17 c-3 -7 -5 -2 -5 12 0 14 2 19 5 13 2 -7 2 -19 0 -25z m63 3
c10 -19 10 -22 -1 -16 -9 6 -11 3 -6 -8 3 -9 -1 -24 -10 -33 -16 -15 -17 -15
-24 2 -7 16 -8 15 -9 -6 l-2 -25 -7 25 c-8 27 11 56 29 45 10 -6 14 7 10 35
-2 18 3 13 20 -19z m-759 -53 c16 -7 29 -17 29 -22 0 -18 30 18 31 38 1 17 2
17 6 4 2 -10 9 -18 14 -18 5 0 1 -10 -11 -22 -24 -26 -20 -34 12 -18 19 10 21
10 11 -1 -7 -7 -13 -20 -13 -29 0 -13 1 -13 10 0 5 8 10 11 10 5 0 -5 7 -18
14 -28 12 -15 18 -16 35 -8 14 8 22 8 27 -1 4 -7 3 -8 -4 -4 -16 10 -15 -7 1
-23 10 -11 9 -12 -1 -6 -8 4 -13 2 -11 -6 4 -30 -2 -39 -26 -39 -14 0 -25 4
-25 9 0 6 -20 24 -45 42 -25 18 -45 37 -45 42 0 5 -12 22 -27 37 -16 15 -36
38 -46 51 -17 23 -17 24 0 30 11 4 19 1 21 -7 2 -7 16 -19 33 -26z m680 -3 c9
-19 9 -19 -4 -2 -11 13 -16 15 -20 5 -2 -7 -4 0 -4 16 -1 29 5 25 28 -19z
m-641 15 c0 -5 -5 -10 -11 -10 -5 0 -7 5 -4 10 3 6 8 10 11 10 2 0 4 -4 4 -10z
m114 -6 c5 -14 4 -15 -9 -4 -17 14 -19 20 -6 20 5 0 12 -7 15 -16z m483 1 c-4
-8 -2 -17 3 -20 5 -3 6 -13 3 -22 -4 -11 -3 -14 5 -9 7 4 12 5 12 2 0 -3 -5
-8 -10 -11 -13 -8 -31 40 -24 60 4 8 8 15 11 15 3 0 3 -7 0 -15z m-364 -19 c4
-10 1 -13 -9 -9 -7 3 -14 9 -14 14 0 14 17 10 23 -5z m324 -68 c-3 -8 -6 -5
-6 6 -1 11 2 17 5 13 3 -3 4 -12 1 -19z m-67 -18 c8 -15 8 -25 0 -38 -9 -14
-10 -13 -4 8 6 21 4 23 -7 13 -11 -9 -18 -8 -32 2 -18 13 -18 14 0 24 25 15
31 14 43 -9z m-200 -251 c0 -6 -4 -7 -10 -4 -5 3 -10 11 -10 16 0 6 5 7 10 4
6 -3 10 -11 10 -16z m4310 -69 c0 -5 -4 -10 -9 -10 -6 0 -13 5 -16 10 -3 6 1
10 9 10 9 0 16 -4 16 -10z m-2950 -30 c0 -5 -7 -10 -15 -10 -8 0 -15 5 -15 10
0 6 7 10 15 10 8 0 15 -4 15 -10z m418 -98 c6 -18 -15 -14 -22 4 -4 10 -1 14
6 12 6 -2 14 -10 16 -16z m-1440 -396 c4 -17 -1 -18 -42 -14 -52 6 -61 11 -51
28 4 6 25 10 48 8 32 -2 43 -8 45 -22z"/>
<path d="M5770 940 c0 -5 5 -10 11 -10 5 0 7 5 4 10 -3 6 -8 10 -11 10 -2 0
-4 -4 -4 -10z"/>
<path d="M406 3424 c-4 -9 -5 -18 -4 -19 33 -25 78 -24 78 2 0 10 -7 14 -20
10 -11 -3 -18 -2 -15 3 3 4 -2 11 -11 14 -21 8 -21 8 -28 -10z"/>
<path d="M828 3242 c-24 -3 -28 -8 -28 -33 0 -17 -4 -28 -9 -25 -10 7 -61 -38
-61 -54 0 -16 63 -12 88 6 12 8 22 10 22 5 0 -6 7 -11 16 -11 8 0 12 5 9 10
-3 6 -3 16 2 23 4 6 9 21 10 31 2 11 9 26 16 35 10 12 9 14 -4 9 -9 -4 -20 -3
-25 1 -5 3 -21 5 -36 3z"/>
<path d="M1450 3230 c0 -16 67 -16 85 1 5 5 -9 9 -38 9 -26 0 -47 -4 -47 -10z"/>
<path d="M1424 3217 c-3 -8 -20 -18 -38 -21 -37 -7 -62 -30 -68 -61 -2 -14 3
-20 17 -21 41 -2 46 -4 39 -16 -5 -7 -2 -9 8 -5 9 3 30 -5 49 -19 30 -22 34
-23 50 -8 15 13 16 20 6 35 -6 10 -17 19 -24 19 -14 0 -11 43 4 62 8 10 5 17
-13 31 -20 15 -25 16 -30 4z"/>
<path d="M900 3209 c0 -5 5 -7 10 -4 6 3 10 8 10 11 0 2 -4 4 -10 4 -5 0 -10
-5 -10 -11z"/>
<path d="M1641 3036 c-7 -8 -30 -17 -52 -21 -22 -4 -38 -10 -34 -13 6 -6 97
-20 158 -24 15 -1 27 -5 27 -9 0 -18 73 -21 118 -6 26 9 38 16 27 17 -18 1
-18 2 -4 13 9 7 18 17 20 22 6 14 -109 24 -144 12 -17 -6 -32 -5 -40 1 -23 18
-64 22 -76 8z"/>
<path d="M965 3010 c-4 -6 -11 -8 -16 -5 -5 4 -9 2 -9 -4 0 -16 50 -25 63 -12
9 9 8 14 -3 21 -19 12 -27 12 -35 0z"/>
<path d="M1403 2975 c-18 -8 -33 -18 -33 -22 1 -20 19 -34 41 -31 19 2 24 10
26 36 2 17 2 32 0 32 -1 -1 -17 -7 -34 -15z"/>
<path d="M560 2944 c-25 -14 -47 -29 -50 -33 -5 -8 -21 -11 -143 -30 -43 -7
-66 -22 -67 -42 0 -17 31 -16 65 2 22 12 44 17 54 13 34 -15 97 -22 107 -12 3
3 6 15 7 26 0 11 5 18 9 16 17 -11 46 8 58 36 19 46 9 52 -40 24z"/>
<path d="M1168 2748 c4 -15 12 -18 44 -14 44 5 64 16 30 16 -12 0 -22 5 -22
10 0 6 -13 9 -29 8 -22 -2 -27 -6 -23 -20z"/>
<path d="M2061 2681 c-8 -5 -11 -16 -8 -25 7 -18 53 -21 77 -6 13 8 12 11 -5
24 -23 17 -44 20 -64 7z"/>
<path d="M500 2490 c0 -5 8 -11 18 -11 9 -1 28 -3 41 -4 23 -2 24 -2 6 11 -22
16 -65 19 -65 4z"/>
<path d="M1035 2439 c-51 -19 -46 -22 30 -21 51 1 55 2 55 16 0 22 -31 24 -85
5z"/>
<path d="M1260 2402 c0 -25 15 -43 46 -58 43 -21 53 -13 22 18 -12 13 -23 28
-23 33 0 6 -10 11 -22 13 -13 2 -23 -1 -23 -6z"/>
<path d="M1642 2348 c-20 -20 -14 -35 18 -48 27 -11 33 -10 53 8 12 11 31 22
42 24 18 4 17 6 -8 16 -37 15 -90 15 -105 0z"/>
<path d="M1895 2306 c-12 -9 -16 -20 -12 -35 4 -18 -1 -27 -29 -43 -23 -13
-33 -26 -30 -35 3 -8 6 -17 6 -19 0 -2 32 -4 70 -4 74 0 96 14 70 45 -9 11 -9
22 1 50 11 31 11 37 -1 45 -21 14 -53 12 -75 -4z"/>
<path d="M2378 2273 c7 -3 16 -2 19 1 4 3 -2 6 -13 5 -11 0 -14 -3 -6 -6z"/>
<path d="M602 2212 c-13 -4 -23 -10 -23 -14 1 -5 1 -12 1 -18 0 -5 19 -14 43
-20 23 -6 55 -18 70 -26 27 -15 107 -12 107 5 0 4 16 5 36 3 28 -3 35 -1 32 9
-3 8 -16 15 -29 16 -48 3 -105 15 -131 28 -38 18 -78 25 -106 17z"/>
<path d="M2110 2170 c0 -5 5 -10 10 -10 6 0 10 5 10 10 0 6 -4 10 -10 10 -5 0
-10 -4 -10 -10z"/>
<path d="M1220 2145 c-12 -15 -12 -19 3 -30 17 -12 103 -12 165 1 26 5 30 32
5 33 -10 1 -50 4 -88 7 -59 5 -73 3 -85 -11z"/>
<path d="M1650 2105 c0 -8 5 -15 10 -15 6 0 10 7 10 15 0 8 -4 15 -10 15 -5 0
-10 -7 -10 -15z"/>
<path d="M1950 2060 c0 -6 7 -10 15 -10 8 0 15 2 15 4 0 2 -7 6 -15 10 -8 3
-15 1 -15 -4z"/>
<path d="M2400 2035 c-10 -12 -7 -13 21 -5 42 12 49 20 17 20 -14 0 -31 -7
-38 -15z"/>
<path d="M880 2019 c-14 -4 -20 -7 -14 -8 7 -1 14 -8 18 -16 4 -12 -2 -15 -27
-14 -18 0 -26 3 -19 6 26 10 10 19 -38 19 -27 0 -50 -4 -50 -8 0 -4 -9 -8 -21
-8 -13 0 -18 -4 -13 -12 5 -7 3 -8 -5 -3 -14 8 -71 -41 -71 -61 0 -6 10 -12
23 -12 12 0 39 -3 60 -5 20 -3 37 -2 37 1 0 4 15 7 34 7 19 0 32 -3 30 -6 -2
-3 9 -7 24 -8 29 -1 73 -7 134 -17 25 -4 55 0 87 12 l49 17 -31 17 c-18 9 -52
20 -76 24 -24 4 -52 11 -62 17 -20 10 -26 49 -8 49 5 0 8 4 4 9 -6 11 -27 11
-65 0z"/>
<path d="M1223 2009 c-6 -6 -30 -10 -52 -7 -35 3 -39 1 -27 -10 8 -8 39 -16
69 -18 43 -3 56 -1 61 12 3 9 4 20 0 25 -7 13 -38 11 -51 -2z"/>
<path d="M1320 2005 c-10 -12 -10 -15 3 -15 19 0 31 16 18 24 -5 3 -14 -1 -21
-9z"/>
<path d="M1430 1975 c-17 -21 9 -33 78 -37 35 -1 68 -8 74 -15 14 -17 73 -16
87 1 16 19 -4 32 -54 35 -22 2 -45 7 -50 11 -18 15 -123 19 -135 5z"/>
<path d="M2140 1940 c0 -5 4 -10 9 -10 6 0 13 5 16 10 3 6 -1 10 -9 10 -9 0
-16 -4 -16 -10z"/>
<path d="M398 1900 c-54 -7 -88 -22 -88 -40 0 -20 60 -17 210 10 69 12 93 24
57 27 -12 1 -44 4 -72 7 -27 2 -76 1 -107 -4z"/>
</g>
</svg>
